<?xml version="1.0" standalone="no"?>
<!DOCTYPE svg PUBLIC "-//W3C//DTD SVG 20010904//EN"
 "http://www.w3.org/TR/2001/REC-SVG-20010904/DTD/svg10.dtd">
<svg version="1.0" xmlns="http://www.w3.org/2000/svg"
 width="256.000000pt" height="256.000000pt" viewBox="0 0 256.000000 256.000000"
 preserveAspectRatio="xMidYMid meet">

<g transform="translate(0.000000,256.000000) scale(0.100000,-0.100000)"
fill="#000000" stroke="none">
<path d="M1160 2269 c-578 -134 -914 -216 -929 -227 -14 -10 -34 -31 -45 -46
-21 -27 -21 -35 -21 -881 0 -846 0 -854 21 -881 11 -15 33 -37 48 -48 27 -21
33 -21 1046 -21 1013 0 1019 0 1046 21 15 11 37 33 48 48 21 27 21 36 21 721
0 685 0 694 -21 721 -11 15 -33 37 -48 48 -27 20 -42 21 -529 26 l-502 5 430
99 c237 54 449 107 472 117 46 19 79 62 89 116 8 43 -51 294 -78 328 -24 31
-62 51 -108 59 -25 4 -301 -56 -940 -205z"/>
</g>
</svg>
