<?xml version="1.0" standalone="no"?>
<!DOCTYPE svg PUBLIC "-//W3C//DTD SVG 20010904//EN"
 "http://www.w3.org/TR/2001/REC-SVG-20010904/DTD/svg10.dtd">
<svg version="1.0" xmlns="http://www.w3.org/2000/svg"
 width="256.000000pt" height="256.000000pt" viewBox="0 0 256.000000 256.000000"
 preserveAspectRatio="xMidYMid meet">

<g transform="translate(0.000000,256.000000) scale(0.100000,-0.100000)"
fill="#000000" stroke="none">
<path d="M1155 2265 c-484 -112 -895 -211 -913 -219 -38 -19 -68 -64 -77 -118
-10 -59 27 -126 85 -155 44 -23 46 -23 526 -23 l481 0 465 108 c257 60 478
116 493 126 38 25 65 75 65 122 0 60 -48 265 -69 294 -32 45 -80 70 -130 69
-25 -1 -442 -93 -926 -204z"/>
<path d="M2359 1616 c-1 -3 -2 -10 -3 -14 0 -4 -8 -26 -18 -47 -21 -52 -30
-77 -34 -94 -1 -8 -7 -17 -13 -20 -5 -4 -11 -18 -13 -31 -2 -14 -16 -49 -31
-77 -15 -29 -24 -53 -21 -53 4 0 2 -6 -4 -12 -6 -7 -10 -17 -10 -23 1 -19 -82
-24 -487 -26 -345 -1 -689 -11 -607 -17 27 -2 25 -18 -12 -87 -11 -22 -21 -44
-21 -50 -1 -20 -28 -75 -37 -75 -5 0 -7 -4 -4 -9 6 -9 -30 -112 -64 -186 -20
-44 -32 -77 -30 -85 5 -15 -68 -19 -353 -19 -352 -1 -348 -2 -406 64 l-31 36
0 -233 c0 -128 5 -251 10 -272 11 -51 65 -105 116 -116 22 -6 464 -10 1009
-10 l971 0 44 22 c33 17 51 35 68 68 l23 45 -5 520 c-3 286 -8 540 -10 565 -2
25 -5 87 -7 138 -2 51 -6 95 -11 98 -4 3 -9 3 -9 0z"/>
</g>
</svg>
